# xmcd
#
# Track frame offsets: 
#        150
#        12121
#        25593
#        38767
#        53033
#        63747
#        72669
#        83421
#        100215
#        109963
#        123472
#        134051
#        145005
#        156644
#        169846
#        180919
#        193062
#        204252
#        217189
#        230511
#        240939
#
# Disc length: 3395 seconds
#
# Revision: 2
# Processed by: cddbd v1.5.2PL0 Copyright (c) Steve Scherf et al.
# Submitted via: ExactAudioCopyFreeDBPlugin 1.0
#
DISCID=2a0d4115
DTITLE=The Greenbriar Boys - Best of the Vanguard Years
DYEAR=2002
DGENRE=Bluegrass
TTITLE0=Sleepy-Eyed John
TTITLE1=Ragged But Right
TTITLE2=McKinley
TTITLE3=Levee Breaking Blues
TTITLE4=A Minor Breakdown
TTITLE5=Let Me Fall
TTITLE6=The Blues My Naughty Sweetie Gives To Me
TTITLE7=At The End Of A Long, Lonely Day
TTITLE8=Yellin Holler
TTITLE9=I Cried Again
TTITLE10=The Train That I Ride
TTITLE11=I Heard The Bluebirds Sing
TTITLE12=Morning Train
TTITLE13=Shackles And Chains
TTITLE14=Chicken
TTITLE15=Alligator Man
TTITLE16=Russian Around
TTITLE17=Up To My Neck In High Muddy Waters
TTITLE18=Little Birdie
TTITLE19=Prisoner's Song
TTITLE20=Different Drum
EXTD=
EXTT0=
EXTT1=
EXTT2=
EXTT3=
EXTT4=
EXTT5=
EXTT6=
EXTT7=
EXTT8=
EXTT9=
EXTT10=
EXTT11=
EXTT12=
EXTT13=
EXTT14=
EXTT15=
EXTT16=
EXTT17=
EXTT18=
EXTT19=
EXTT20=
PLAYORDER=
